<svg width="50" height="50" viewBox="0 0 50 50" fill="none" xmlns="http://www.w3.org/2000/svg">
<g clip-path="url(#clip0_41_43)">
<path d="M45.8333 0C46.8539 0.000134627 47.8389 0.374817 48.6016 1.05298C49.3642 1.73114 49.8514 2.66562 49.9708 3.67917L50 4.16667V45.8333C49.9999 46.8539 49.6252 47.8389 48.947 48.6016C48.2689 49.3642 47.3344 49.8514 46.3208 49.9708L45.8333 50H4.16667C3.14611 49.9999 2.1611 49.6252 1.39845 48.947C0.635804 48.2689 0.148572 47.3344 0.0291667 46.3208L0 45.8333V4.16667C0.000134627 3.14611 0.374817 2.1611 1.05298 1.39845C1.73114 0.635804 2.66562 0.148572 3.67917 0.0291667L4.16667 0H45.8333ZM45.8333 4.16667H4.16667V45.8333H45.8333V4.16667ZM32.2583 19.2917C38.5167 19.2917 39.675 23.4083 39.675 28.7625L39.6667 39.6667H33.5L33.4875 29.1667C33.4458 27.0417 33.0792 24.7292 30.2833 24.7292C27.2708 24.7292 26.65 26.9375 26.5833 29.35L26.575 39.6667H20.4042V19.7917H26.3292V22.5H26.4125C27.0058 21.4863 27.8626 20.6523 28.8919 20.0867C29.9212 19.521 31.0846 19.249 32.2583 19.2917ZM16.525 19.7875V39.6667H10.3417V19.7875H16.525ZM13.4375 9.90417C14.3879 9.90417 15.2993 10.2817 15.9713 10.9537C16.6433 11.6257 17.0208 12.5371 17.0208 13.4875C17.0208 14.4379 16.6433 15.3493 15.9713 16.0213C15.2993 16.6933 14.3879 17.0708 13.4375 17.0708C12.4871 17.0708 11.5757 16.6933 10.9037 16.0213C10.2317 15.3493 9.85417 14.4379 9.85417 13.4875C9.85417 12.5371 10.2317 11.6257 10.9037 10.9537C11.5757 10.2817 12.4871 9.90417 13.4375 9.90417Z" fill="black"/>
</g>
<defs>
<clipPath id="clip0_41_43">
<rect width="50" height="50" fill="white"/>
</clipPath>
</defs>
</svg>
