<svg width="30" height="30" viewBox="0 0 30 30" fill="none" xmlns="http://www.w3.org/2000/svg">
<path d="M15 21.25C16.6325 21.25 18.0225 22.2938 18.5375 23.75H25C25.3315 23.75 25.6495 23.8817 25.8839 24.1161C26.1183 24.3505 26.25 24.6685 26.25 25C26.25 25.3315 26.1183 25.6495 25.8839 25.8839C25.6495 26.1183 25.3315 26.25 25 26.25H18.5363C18.2775 26.9811 17.7985 27.6139 17.1652 28.0616C16.5319 28.5092 15.7755 28.7495 15 28.7495C14.2245 28.7495 13.4681 28.5092 12.8348 28.0616C12.2015 27.6139 11.7225 26.9811 11.4637 26.25H5C4.66848 26.25 4.35054 26.1183 4.11612 25.8839C3.8817 25.6495 3.75 25.3315 3.75 25C3.75 24.6685 3.8817 24.3505 4.11612 24.1161C4.35054 23.8817 4.66848 23.75 5 23.75H11.4625C11.7211 23.0186 12.2002 22.3853 12.8338 21.9376C13.4673 21.4898 14.2242 21.2496 15 21.25ZM21.25 2.5C21.913 2.5 22.5489 2.76339 23.0178 3.23223C23.4866 3.70107 23.75 4.33696 23.75 5V15C23.75 15.663 23.4866 16.2989 23.0178 16.7678C22.5489 17.2366 21.913 17.5 21.25 17.5H18.0175L15.8837 19.6337C15.6685 19.849 15.3821 19.9783 15.0784 19.9974C14.7746 20.0165 14.4743 19.9241 14.2338 19.7375L14.1163 19.6337L11.9812 17.5H8.75C8.11928 17.5002 7.51179 17.262 7.04931 16.8331C6.58684 16.4043 6.30355 15.8164 6.25625 15.1875L6.25 15V5C6.25 4.33696 6.51339 3.70107 6.98223 3.23223C7.45107 2.76339 8.08696 2.5 8.75 2.5H21.25Z" fill="black"/>
</svg>
